<?xml version="1.0" encoding="UTF-8"?>
<!DOCTYPE svg PUBLIC "-//W3C//DTD SVG 1.1//EN" "http://www.w3.org/Graphics/SVG/1.1/DTD/svg11.dtd">
<!-- Creator: CorelDRAW -->
<svg xmlns="http://www.w3.org/2000/svg" xml:space="preserve" width="210mm" height="184mm" version="1.1" style="shape-rendering:geometricPrecision; text-rendering:geometricPrecision; image-rendering:optimizeQuality; fill-rule:evenodd; clip-rule:evenodd"
viewBox="0 0 21000 18400"
 xmlns:xlink="http://www.w3.org/1999/xlink"
 xmlns:xodm="http://www.corel.com/coreldraw/odm/2003">
 <defs>
  <style type="text/css">
   <![CDATA[
    .fil1 {fill:#6F9FBD;fill-rule:nonzero}
    .fil0 {fill:#89BAD9;fill-rule:nonzero}
    .fil2 {fill:#DBDBDB;fill-rule:nonzero}
    .fil3 {fill:white;fill-rule:nonzero}
   ]]>
  </style>
 </defs>
 <g id="Layer_x0020_1">
  <metadata id="CorelCorpID_0Corel-Layer"/>
  <g id="_105553128980064">
   <path class="fil0" d="M630.48 142.84l15956.13 0c339.49,0 630.48,290.99 630.48,630.48l0 15931.88c0,339.49 -290.99,630.48 -630.48,630.48l-15956.13 0c-339.49,0 -630.48,-290.99 -630.48,-630.48l0 -15956.12c0,-339.5 290.99,-606.24 630.48,-606.24z"/>
   <path class="fil1" d="M2521.94 17335.68l0 -17192.84 -1891.46 0c-339.49,0 -630.48,290.99 -630.48,630.49l0 15931.87c0,339.49 290.99,630.48 630.48,630.48l1891.46 0z"/>
   <polygon class="fil1" points="7590.07,3465.01 7735.57,3683.26 7856.81,3901.5 7978.06,3683.26 8099.31,3465.01 8220.55,3683.26 8341.8,3901.5 8487.3,3683.26 8608.55,3465.01 8729.79,3683.26 8851.04,3901.5 8972.29,3683.26 9093.53,3465.01 9239.03,3683.26 9360.28,3901.5 9481.52,3683.26 9602.77,3465.01 9724.02,3683.26 9869.52,3901.5 9869.52,142.84 7347.58,142.84 7347.58,3901.5 7468.82,3683.26 "/>
   <path class="fil2" d="M12536.95 6399.19l7565.82 0c484.99,0 897.23,412.24 897.23,897.23l0 10063.51c0,484.99 -412.24,897.23 -897.23,897.23l-7565.82 0c-484.99,0 -897.23,-412.24 -897.23,-897.23l0 -10063.51c0,-509.24 387.99,-897.23 897.23,-897.23z"/>
   <path class="fil0" d="M13337.18 8581.64l5965.36 0c387.99,0 703.23,315.24 703.23,703.23l0 7299.08c0,387.99 -315.24,703.23 -703.23,703.23l-5965.36 0c-387.99,0 -703.23,-315.24 -703.23,-703.23l0 -7299.08c0,-387.99 315.24,-703.23 703.23,-703.23z"/>
   <path class="fil3" d="M17120.09 7272.17l-266.74 0c0,-315.24 -242.49,-557.74 -557.74,-557.74 -315.25,0 -557.74,242.49 -557.74,557.74l-266.74 0c-218.24,0 -412.24,194 -412.24,412.24l0 0c0,218.24 194,412.24 412.24,412.24l1624.71 0c218.24,0 412.24,-194 412.24,-412.24l0 0c24.25,-242.49 -145.49,-412.24 -387.99,-412.24z"/>
  </g>
  <g id="_105553128877920">
   <path class="fil3" d="M13603.93 10109.35c-97,-97 -97,-266.74 0,-363.74 97,-97 266.74,-97 363.74,0l218.24 218.24 460.74 -460.74c97,-97 266.74,-97 363.74,0 97,97 97,266.74 0,363.74l-630.48 654.74c-97,97 -266.74,97 -363.74,0l-412.24 -412.24z"/>
   <path class="fil3" d="M13603.93 12049.31c-97,-97 -97,-266.74 0,-363.74 97,-97 266.74,-97 363.74,0l218.24 218.24 460.74 -460.74c97,-97 266.74,-97 363.74,0 97,97 97,266.74 0,363.74l-630.48 654.74c-97,97 -266.74,97 -363.74,0l-412.24 -412.24z"/>
   <path class="fil3" d="M13603.93 13989.26c-97,-97 -97,-266.74 0,-363.74 97,-97 266.74,-97 363.74,0l218.24 218.24 460.74 -460.74c97,-97 266.74,-97 363.74,0 97,97 97,266.74 0,363.74l-630.48 654.74c-97,97 -266.74,97 -363.74,0l-412.24 -412.24z"/>
   <path class="fil3" d="M13603.93 15929.22c-97,-97 -97,-266.74 0,-363.74 97,-97 266.74,-97 363.74,0l218.24 218.24 460.74 -460.74c97,-97 266.74,-97 363.74,0 97,97 97,266.74 0,363.74l-630.48 654.74c-97,97 -266.74,97 -363.74,0l-412.24 -412.24z"/>
   <path class="fil3" d="M15859.12 12122.06c-121.25,0 -194,-97 -194,-194 0,-121.25 97,-194 194,-194l3031.18 0c121.25,0 194,97 194,194 0,121.25 -97,194 -194,194l-3031.18 0zm0 2012.7c-121.25,0 -194,-97 -194,-194 0,-121.25 97,-194 194,-194l3031.18 0.01c121.25,0 194,97 194,194 0,121.25 -97,194 -194,194l-3031.18 -0.01zm0 2036.95c-121.25,0 -194,-97 -194,-194 0,-121.25 97,-194 194,-194l3031.18 0.01c121.25,0 194,97 194,194 0,121.25 -97,194 -194,194l-3031.18 -0.01zm0 -6062.36c-121.25,0 -194,-97 -194,-194 0,-121.25 97,-194 194,-194l3031.18 0.01c121.25,0 194,97 194,194 0,121.25 -97,194 -194,194l-3031.18 -0.01z"/>
  </g>
  <g id="_105553128869888">
  </g>
  <g id="_105553128876160">
  </g>
  <g id="_105553128869376">
  </g>
  <g id="_105553128867296">
  </g>
  <g id="_105553129065216">
  </g>
  <g id="_105553129387328">
  </g>
  <g id="_105553129624576">
  </g>
  <g id="_105553130385056">
  </g>
  <g id="_105553130375328">
  </g>
  <g id="_105553130385376">
  </g>
  <g id="_105553130376064">
  </g>
  <g id="_105553130355680">
  </g>
  <g id="_105553130288192">
  </g>
  <g id="_105553130281024">
  </g>
  <g id="_105553130276640">
  </g>
 </g>
</svg>
