<svg id="Layer_1" enable-background="new 0 0 511 511" height="512" viewBox="0 0 511 511" width="512" xmlns="http://www.w3.org/2000/svg"><g fill="#6c757d"><path d="m487.5 98.697c-12.958 0-23.5 10.542-23.5 23.5s10.542 23.5 23.5 23.5 23.5-10.542 23.5-23.5-10.542-23.5-23.5-23.5zm0 32c-4.687 0-8.5-3.813-8.5-8.5s3.813-8.5 8.5-8.5 8.5 3.813 8.5 8.5-3.813 8.5-8.5 8.5z"/><path d="m23.5 370.697c-12.958 0-23.5 10.542-23.5 23.5s10.542 23.5 23.5 23.5 23.5-10.542 23.5-23.5-10.542-23.5-23.5-23.5zm0 32c-4.687 0-8.5-3.813-8.5-8.5s3.813-8.5 8.5-8.5 8.5 3.813 8.5 8.5-3.813 8.5-8.5 8.5z"/><path d="m416 90.197h15v-16.5h16.5v-15h-16.5v-16.5h-15v16.5h-16.5v15h16.5z"/><path d="m119 402.197h-15v16.5h-16.5v15h16.5v16.5h15v-16.5h16.5v-15h-16.5z"/><path d="m415 106.697h-211.486l-32-48h-123.514v303h111.5v-15h-94.394l44.25-177h336.539l-44.25 177h-26.145v15h37.855l51.75-207h-50.105zm-251.514-33 22 33h-122.486v-33zm-65.841 81-34.645 138.576v-171.576h337v33z"/><path d="m255.5 218.697c-39.425 0-71.5 32.075-71.5 71.5s32.075 71.5 71.5 71.5 71.5-32.075 71.5-71.5-32.075-71.5-71.5-71.5zm0 128c-31.154 0-56.5-25.346-56.5-56.5s25.346-56.5 56.5-56.5 56.5 25.346 56.5 56.5-25.346 56.5-56.5 56.5z"/><path d="m359 290.197c0-57.07-46.43-103.5-103.5-103.5s-103.5 46.429-103.5 103.5 46.43 103.5 103.5 103.5c19.685 0 38.104-5.526 53.788-15.105l90.212 90.212 34.606-34.606-90.212-90.212c9.58-15.686 15.106-34.104 15.106-53.789zm-192 0c0-48.799 39.701-88.5 88.5-88.5s88.5 39.701 88.5 88.5-39.701 88.5-88.5 88.5-88.5-39.701-88.5-88.5zm232.5 157.393-53.393-53.393 13.393-13.393 53.394 53.393zm-50.607-77.393-13.393 13.393-13.853-13.853c4.86-4.049 9.344-8.533 13.393-13.393z"/><path d="m256.601 250.722c-6.491-.297-12.643 2.002-17.33 6.479-4.62 4.413-7.271 10.608-7.271 16.996h15c0-2.345.935-4.528 2.631-6.148 1.694-1.618 3.934-2.456 6.28-2.342 4.259.196 7.883 3.82 8.079 8.079.133 2.886-1.183 5.618-3.52 7.308-7.808 5.646-12.47 15.031-12.47 25.103h15c0-5.273 2.34-10.114 6.26-12.948 6.449-4.664 10.081-12.197 9.715-20.152-.552-11.995-10.38-21.824-22.374-22.375z"/><path d="m248 314.197h15v16h-15z"/><path d="m79.5 82.697h16v15h-16z"/><path d="m111.5 82.697h16v15h-16z"/><path d="m143.5 82.697h16v15h-16z"/></g></svg>