<?xml version="1.0" encoding="UTF-8"?>
<!DOCTYPE svg PUBLIC "-//W3C//DTD SVG 1.1//EN" "http://www.w3.org/Graphics/SVG/1.1/DTD/svg11.dtd">
<!-- Creator: CorelDRAW -->
<svg xmlns="http://www.w3.org/2000/svg" xml:space="preserve" width="210mm" height="104mm" version="1.1" style="shape-rendering:geometricPrecision; text-rendering:geometricPrecision; image-rendering:optimizeQuality; fill-rule:evenodd; clip-rule:evenodd"
viewBox="0 0 21000 10400"
 xmlns:xlink="http://www.w3.org/1999/xlink"
 xmlns:xodm="http://www.corel.com/coreldraw/odm/2003">
 <defs>
  <style type="text/css">
   <![CDATA[
    .fil0 {fill:#9B9C9E;fill-rule:nonzero}
   ]]>
  </style>
 </defs>
 <g id="Layer_x0020_1">
  <metadata id="CorelCorpID_0Corel-Layer"/>
  <path class="fil0" d="M18299.29 127.06l-11053.4 0c-687.39,0 -1246.64,559.22 -1246.64,1247.48 0,687.39 559.25,1246.64 1246.64,1246.64l11053.4 0.01c687.39,0 1246.64,-559.25 1246.64,-1246.64 0,-688.26 -559.25,-1247.48 -1246.64,-1247.48l0 -0.01z"/>
  <path class="fil0" d="M18299.29 3952.94l-11053.4 0c-687.39,0 -1246.64,559.22 -1246.64,1247.48 0,687.39 559.25,1246.64 1246.64,1246.64l11053.4 0c687.39,0 1246.64,-559.25 1246.64,-1246.64 0,-688.26 -559.25,-1247.48 -1246.64,-1247.48z"/>
  <path class="fil0" d="M18299.29 7778.81l-11053.4 0c-687.39,0 -1246.64,559.25 -1246.64,1247.48 0,687.39 559.25,1246.64 1246.64,1246.64l11053.4 0.01c687.39,0 1246.64,-559.25 1246.64,-1246.64 0,-688.23 -559.25,-1247.48 -1246.64,-1247.48l0 -0.01z"/>
  <path class="fil0" d="M3487.29 3009.66l0 0c0,0 20.57,-17.11 -2652.87,2187.37 2673.44,2203.01 2673.44,2203.01 2673.44,2203.01l0 0c27.79,-13.42 22.68,-928.36 22.68,-2143.1 0,-1216.24 -43.25,-2247.28 -43.25,-2247.28z"/>
 </g>
</svg>
