<?xml version="1.0" encoding="UTF-8"?>
<!DOCTYPE svg PUBLIC "-//W3C//DTD SVG 1.1//EN" "http://www.w3.org/Graphics/SVG/1.1/DTD/svg11.dtd">
<!-- Creator: CorelDRAW -->
<svg xmlns="http://www.w3.org/2000/svg" xml:space="preserve" width="21mm" height="16mm" version="1.1" style="shape-rendering:geometricPrecision; text-rendering:geometricPrecision; image-rendering:optimizeQuality; fill-rule:evenodd; clip-rule:evenodd"
viewBox="0 0 2100 1600"
 xmlns:xlink="http://www.w3.org/1999/xlink"
 xmlns:xodm="http://www.corel.com/coreldraw/odm/2003">
 <defs>
  <style type="text/css">
   <![CDATA[
    .fil0 {fill:none}
    .fil1 {fill:#A9CBD7;fill-rule:nonzero}
    .fil3 {fill:#EB001B;fill-rule:nonzero}
    .fil4 {fill:#F79E1B;fill-rule:nonzero}
    .fil2 {fill:#FF5F00;fill-rule:nonzero}
   ]]>
  </style>
 </defs>
 <g id="Layer_x0020_1">
  <metadata id="CorelCorpID_0Corel-Layer"/>
  <g id="Page-1">
   <g id="mc_vrt_pos">
    <rect id="Rectangle" class="fil0" x="-206.77" y="-231.88" width="2511.54" height="2063.75"/>
    <g id="Group">
     <path id="Shape" class="fil1" d="M411.11 1569.92l0 -103.11c1.23,-17.55 -5.17,-34.77 -17.56,-47.27 -12.39,-12.51 -29.57,-19.08 -47.15,-18.04 -23.17,-1.51 -45.33,9.69 -57.83,29.22 -11.41,-18.96 -32.27,-30.16 -54.39,-29.22 -19.26,-0.97 -37.6,8.32 -48.2,24.4l0 -20.27 -35.8 0 0 164.29 36.14 0 0 -91.08c-1.58,-11.39 2.02,-22.88 9.82,-31.33 7.8,-8.45 18.97,-12.97 30.46,-12.33 23.75,0 35.8,15.47 35.8,43.31l0 91.43 36.15 0 0 -91.08c-1.46,-11.36 2.18,-22.78 9.95,-31.2 7.77,-8.42 18.87,-12.98 30.33,-12.46 24.43,0 36.14,15.47 36.14,43.31l0 91.43 36.14 0zm534.95 -164.29l-58.52 0 0 -49.84 -36.14 0 0 49.84 -33.39 0 0 32.65 33.39 0 0 74.93c0,38.15 14.8,60.84 57.14,60.84 15.82,0.05 31.33,-4.36 44.75,-12.72l-10.32 -30.59c-9.6,5.72 -20.5,8.91 -31.67,9.28 -17.9,0 -23.76,-11 -23.76,-27.5l0 -74.24 58.52 0 0 -32.65zm305.35 -4.13c-17.78,-0.52 -34.43,8.71 -43.38,24.06l0 -19.93 -35.46 0 0 164.29 35.81 0 0 -92.12c0,-27.15 11.7,-42.27 35.11,-42.27 7.66,-0.11 15.26,1.3 22.37,4.12l11.02 -33.68c-8.18,-2.92 -16.79,-4.43 -25.47,-4.47l0 0zm-461.63 17.19c-20.26,-12.04 -43.56,-18 -67.13,-17.19 -41.65,0 -68.5,19.94 -68.5,52.59 0,26.81 19.97,43.31 56.8,48.46l16.87 2.41c19.62,2.74 28.91,7.9 28.91,17.18 0,12.72 -13.08,19.94 -37.52,19.94 -19.66,0.57 -38.94,-5.49 -54.73,-17.19l-16.87 27.84c20.85,14.55 45.83,22.02 71.26,21.32 47.5,0 75.04,-22.35 75.04,-53.62 0,-28.88 -21.69,-44 -57.49,-49.16l-16.86 -2.4c-15.5,-2.06 -27.89,-5.16 -27.89,-16.15 0,-12.04 11.7,-19.25 31.33,-19.25 18.02,0.27 35.67,5.12 51.29,14.09l15.49 -28.87zm959.05 -17.19c-17.78,-0.52 -34.42,8.71 -43.37,24.06l0 -19.93 -35.46 0 0 164.29 35.8 0 0 -92.12c0,-27.15 11.71,-42.27 35.12,-42.27 7.65,-0.11 15.26,1.29 22.37,4.12l11.02 -33.68c-8.18,-2.92 -16.79,-4.43 -25.48,-4.47l0 0zm-461.28 86.27c-0.96,23.41 8.03,46.13 24.75,62.56 16.72,16.43 39.61,25.05 63.03,23.72 21.5,1.08 42.62,-5.91 59.21,-19.6l-17.21 -28.87c-12.38,9.42 -27.47,14.6 -43.03,14.78 -27.85,-1.69 -49.57,-24.73 -49.57,-52.59 0,-27.86 21.72,-50.9 49.57,-52.59 15.56,0.18 30.65,5.36 43.03,14.79l17.21 -28.88c-16.59,-13.68 -37.71,-20.67 -59.21,-19.59 -23.42,-1.33 -46.31,7.28 -63.03,23.71 -16.72,16.44 -25.71,39.16 -24.75,62.56zm335.29 0l0 -82.14 -35.8 0 0 19.93c-12.4,-15.95 -31.77,-24.92 -51.98,-24.06 -46.08,2.26 -82.27,40.21 -82.27,86.27 0,46.06 36.19,84.02 82.27,86.28 20.21,0.86 39.58,-8.11 51.98,-24.07l0 19.94 35.8 0 0 -82.15zm-133.22 0c1.55,-27.04 24.48,-47.87 51.58,-46.87 27.11,1 48.43,23.46 47.98,50.54 -0.45,27.08 -22.52,48.83 -49.64,48.92 -13.78,0.19 -27.02,-5.39 -36.5,-15.38 -9.48,-9.99 -14.35,-23.48 -13.42,-37.21l0 0zm-432.02 -86.27c-46.4,2.44 -82.57,41.05 -81.92,87.43 0.64,46.39 37.88,83.97 84.33,85.12 24.56,0.86 48.58,-7.34 67.47,-23.03l-17.56 -26.47c-13.59,10.88 -30.43,16.93 -47.85,17.19 -24.59,2.06 -46.38,-15.74 -49.22,-40.22l122.2 0c0.35,-4.47 0.69,-8.94 0.69,-13.75 -0.34,-51.21 -32.01,-86.27 -78.14,-86.27l0 0zm-0.69 31.97c22.51,-0.44 41.14,17.39 41.65,39.87l-85.37 0c1.31,-22.94 20.72,-40.65 43.72,-39.87l0 0zm898.12 54.3l0 -148.14 -35.8 0 0 85.93c-12.4,-15.95 -31.77,-24.92 -51.98,-24.06 -46.07,2.25 -82.27,40.21 -82.27,86.27 0,46.07 36.2,84.02 82.27,86.28 20.21,0.86 39.58,-8.11 51.98,-24.07l0 19.94 35.8 0 0 -82.15zm59.68 58.34c2.23,-0.01 4.43,0.42 6.48,1.28 1.97,0.82 3.77,2.01 5.29,3.51 1.51,1.48 2.72,3.25 3.57,5.2 1.74,4.04 1.74,8.62 0,12.67 -0.85,1.94 -2.06,3.7 -3.57,5.18 -1.53,1.49 -3.32,2.69 -5.29,3.52 -2.05,0.87 -4.25,1.32 -6.48,1.3 -6.69,0.07 -12.78,-3.87 -15.45,-10 -1.73,-4.05 -1.73,-8.63 0,-12.67 0.84,-1.95 2.05,-3.71 3.55,-5.2 1.52,-1.51 3.33,-2.7 5.31,-3.51 2.09,-0.86 4.33,-1.3 6.59,-1.28l0 0zm0 29.06c1.7,0.01 3.38,-0.33 4.94,-1 1.49,-0.65 2.85,-1.57 4,-2.72 4.95,-4.99 4.95,-13.03 0,-18.02 -1.15,-1.14 -2.51,-2.06 -4,-2.69 -1.56,-0.67 -3.24,-1 -4.94,-0.99 -1.72,-0.01 -3.43,0.32 -5.03,0.99 -1.52,0.62 -2.9,1.54 -4.06,2.69 -4.95,4.99 -4.95,13.03 0,18.02 1.16,1.16 2.54,2.08 4.06,2.72 1.59,0.67 3.31,1.01 5.03,1l0 0zm0.97 -20.37c1.61,-0.11 3.2,0.35 4.51,1.3 1.05,0.87 1.64,2.18 1.58,3.54 0.04,1.17 -0.42,2.29 -1.26,3.1 -1,0.88 -2.26,1.41 -3.59,1.5l4.97 5.73 -3.89 0 -4.61 -5.69 -1.48 0 0 5.69 -3.25 0 0 -15.17 7.02 0zm-3.77 2.84l0 4.04 3.73 0c0.71,0.04 1.43,-0.14 2.04,-0.5 0.51,-0.34 0.8,-0.93 0.76,-1.54 0.04,-0.6 -0.25,-1.17 -0.76,-1.5 -0.62,-0.36 -1.33,-0.54 -2.04,-0.5l-3.73 0zm-190.1 -69.87c1.55,-27.04 24.48,-47.87 51.59,-46.87 27.1,1 48.42,23.47 47.97,50.55 -0.45,27.08 -22.52,48.82 -49.64,48.91 -13.78,0.19 -27.02,-5.39 -36.5,-15.38 -9.48,-9.99 -14.34,-23.48 -13.42,-37.21l0 0zm-1208.97 0l0 -82.14 -35.8 0 0 19.93c-12.4,-15.95 -31.78,-24.92 -51.98,-24.06 -46.08,2.26 -82.27,40.21 -82.27,86.27 0,46.06 36.19,84.02 82.27,86.28 20.21,0.86 39.58,-8.11 51.98,-24.07l0 19.94 35.8 0 0 -82.15zm-133.22 0c1.55,-27.04 24.48,-47.87 51.58,-46.87 27.11,1 48.43,23.47 47.98,50.55 -0.46,27.08 -22.52,48.82 -49.65,48.91 -13.78,0.19 -27.01,-5.39 -36.49,-15.38 -9.48,-9.99 -14.35,-23.48 -13.42,-37.21l0 0z"/>
     <g>
      <rect id="Rectangle_0" class="fil2" x="777.9" y="153.53" width="542.25" height="972.96"/>
      <path id="Path" class="fil3" d="M812.32 640.01c-0.17,-189.86 87.11,-369.26 236.7,-486.48 -254.08,-199.41 -618.98,-170.39 -838.24,66.67 -219.26,237.06 -219.26,602.56 0,839.62 219.26,237.06 584.16,266.08 838.24,66.67 -149.59,-117.22 -236.87,-296.61 -236.7,-486.48l0 0z"/>
      <path id="Path_1" class="fil4" d="M2051.67 640.01c0,236.9 -135.45,453.01 -348.85,556.55 -213.4,103.54 -467.27,76.33 -653.8,-70.07 149.44,-117.33 236.69,-296.65 236.69,-486.48 0,-189.82 -87.25,-369.15 -236.69,-486.48 186.53,-146.4 440.4,-173.61 653.8,-70.07 213.4,103.54 348.85,319.65 348.85,556.55l0 0z"/>
     </g>
    </g>
   </g>
  </g>
 </g>
</svg>
