<?xml version="1.0" encoding="UTF-8"?>
<!DOCTYPE svg PUBLIC "-//W3C//DTD SVG 1.1//EN" "http://www.w3.org/Graphics/SVG/1.1/DTD/svg11.dtd">
<!-- Creator: CorelDRAW -->
<svg xmlns="http://www.w3.org/2000/svg" xml:space="preserve" width="210mm" height="118mm" version="1.1" style="shape-rendering:geometricPrecision; text-rendering:geometricPrecision; image-rendering:optimizeQuality; fill-rule:evenodd; clip-rule:evenodd"
viewBox="0 0 21000 11800"
 xmlns:xlink="http://www.w3.org/1999/xlink"
 xmlns:xodm="http://www.corel.com/coreldraw/odm/2003">
 <defs>
  <style type="text/css">
   <![CDATA[
    .fil2 {fill:#606060;fill-rule:nonzero}
    .fil3 {fill:#6F9FBD;fill-rule:nonzero}
    .fil1 {fill:#89BAD9;fill-rule:nonzero}
    .fil4 {fill:#C9C9C9;fill-rule:nonzero}
    .fil0 {fill:#DBDBDB;fill-rule:nonzero}
   ]]>
  </style>
 </defs>
 <g id="Layer_x0020_1">
  <metadata id="CorelCorpID_0Corel-Layer"/>
  <g id="_105553130546688">
   <path class="fil0" d="M14090.07 9702.39l6253.68 0c366.73,0 656.25,-289.52 656.25,-656.25l0 -3242.65c0,-289.52 -212.32,-559.74 -501.84,-636.95l-2084.56 -521.14 -1312.5 -2393.38c-135.11,-231.62 -386.03,-386.03 -656.25,-386.03l-2354.78 0 0 7836.4z"/>
   <path class="fil1" d="M3532.17 9702.39l10557.9 0 0 -9477.02 -10557.9 0c-366.73,0 -656.25,289.52 -656.25,656.25l0 2045.95 3281.25 0c289.52,0 521.14,231.62 521.14,521.14l0 0c0,289.52 -231.62,521.14 -521.14,521.14l-3281.25 0 0 5056.99c0,386.03 308.82,675.55 656.25,675.55z"/>
   <path class="fil2" d="M6601.1 7830.15c1042.28,0 1872.24,829.96 1872.24,1872.24 0,1042.28 -829.96,1872.24 -1872.24,1872.24 -1042.28,0 -1872.24,-829.96 -1872.24,-1872.24 0,-1042.28 829.96,-1872.24 1872.24,-1872.24z"/>
   <path class="fil3" d="M6601.1 8718.01c540.44,0 984.37,443.93 984.37,984.37 0,540.44 -443.93,984.37 -984.37,984.37 -540.44,0 -984.37,-443.93 -984.37,-984.37 -19.3,-540.43 424.63,-984.37 984.37,-984.37z"/>
   <path class="fil2" d="M18394.3 7830.15c1042.28,0 1872.24,829.96 1872.24,1872.24 0,1042.28 -829.96,1872.24 -1872.24,1872.24 -1042.28,0 -1872.24,-829.96 -1872.24,-1872.24 0,-1042.28 829.96,-1872.24 1872.24,-1872.24z"/>
   <path class="fil3" d="M18394.3 8718.01c540.44,0 984.37,443.93 984.37,984.37 0,540.44 -443.93,984.37 -984.37,984.37 -540.44,0 -984.37,-443.93 -984.37,-984.37 -19.31,-540.43 424.63,-984.37 984.37,-984.37z"/>
   <g>
    <path class="fil1" d="M521.14 1865.99l8010.11 0c289.52,0 521.14,231.62 521.14,521.14l0 0c0,289.52 -231.62,521.14 -521.14,521.14l-8010.11 0c-289.52,0 -521.14,-231.62 -521.14,-521.14l0 0c0,-270.22 231.62,-521.14 521.14,-521.14z"/>
    <path class="fil1" d="M2219.67 3989.15l3937.5 0c289.52,0 521.14,231.62 521.14,521.14l0 0c0,289.52 -231.62,521.14 -521.14,521.14l-3937.5 0c-289.52,0 -521.14,-231.62 -521.14,-521.14l0 0c0,-289.52 231.62,-521.14 521.14,-521.14z"/>
    <path class="fil1" d="M868.57 3989.15l0 0c289.52,0 521.14,231.62 521.14,521.14l0 38.6c0,289.52 -231.62,521.14 -521.14,521.14l0 0c-289.52,0 -521.14,-231.62 -521.14,-521.14l0 -38.6c19.3,-289.52 231.61,-521.14 521.14,-521.14z"/>
   </g>
   <g>
    <path class="fil3" d="M14090.07 9046.14l-5732.53 0c77.21,212.32 115.81,424.63 115.81,656.25l5616.72 0 0 -656.25z"/>
    <path class="fil3" d="M4728.86 9702.39c0,-231.62 38.6,-443.93 115.81,-656.25l-1968.75 0c0,366.73 289.52,656.25 656.25,656.25l1196.69 0z"/>
   </g>
   <g>
    <path class="fil4" d="M14090.07 9046.14l0 656.25 2431.99 0c0,-231.62 38.6,-443.93 115.81,-656.25l-2547.8 0z"/>
    <path class="fil4" d="M20150.73 9046.14c77.21,212.32 115.81,424.63 115.81,656.25l77.21 0c366.73,0 656.25,-289.52 656.25,-656.25l-849.27 0z"/>
   </g>
   <rect class="fil3" x="13491.72" y="225.37" width="598.35" height="9477.02"/>
  </g>
  <g id="_105553130453312">
  </g>
  <g id="_105553130442656">
  </g>
  <g id="_105553130440160">
  </g>
  <g id="_105553130445504">
  </g>
  <g id="_105553130445312">
  </g>
  <g id="_105553130454368">
  </g>
  <g id="_105553130450656">
  </g>
  <g id="_105553130449760">
  </g>
  <g id="_105553130449536">
  </g>
  <g id="_105553130444512">
  </g>
  <g id="_105553130450176">
  </g>
  <g id="_105553130439328">
  </g>
  <g id="_105553130449952">
  </g>
  <g id="_105553130444960">
  </g>
  <g id="_105553130438752">
  </g>
 </g>
</svg>
